<svg width="204" height="203" viewBox="0 0 204 203" fill="none" xmlns="http://www.w3.org/2000/svg">
<path d="M119.55 173.093C124.531 173.162 129.464 172.11 133.984 170.015C138.504 167.92 142.495 164.836 145.662 160.99L170.292 131.078C173.467 127.222 175.731 122.701 176.918 117.85C178.104 112.999 178.182 107.943 177.145 103.058L169.14 65.345C168.102 60.453 165.973 55.8585 162.912 51.904C159.85 47.9494 155.936 44.7369 151.46 42.5059L116.878 25.2674C112.416 23.0433 107.511 21.8518 102.526 21.781C97.5413 21.7103 92.6043 22.7623 88.0811 24.8588L52.882 41.1746C48.3588 43.2712 44.3654 46.3588 41.1977 50.2085C38.03 54.0582 35.7691 58.5714 34.5827 63.4136L25.3873 100.943C24.1972 105.801 24.1188 110.864 25.158 115.756C26.1973 120.648 28.3273 125.242 31.3893 129.196L54.9948 159.677C58.0526 163.626 61.9611 166.834 66.4298 169.064C70.8984 171.294 75.8122 172.488 80.8059 172.557L119.55 173.093Z" fill="url(#paint0_linear)"/>
<path d="M111.476 76.8618C111.476 71.7561 107.337 67.6172 102.231 67.6172C97.1253 67.6172 92.9863 71.7561 92.9863 76.8618V92.2695C92.9863 97.3752 97.1253 101.514 102.231 101.514C107.337 101.514 111.476 97.3752 111.476 92.2695V76.8618Z" fill="white" stroke="white" stroke-width="7" stroke-linecap="round" stroke-linejoin="round"/>
<path d="M80.6611 92.2695C80.6611 97.9905 82.9338 103.477 86.9791 107.522C91.0244 111.568 96.511 113.84 102.232 113.84C107.953 113.84 113.439 111.568 117.485 107.522C121.53 103.477 123.803 97.9905 123.803 92.2695" stroke="white" stroke-width="7" stroke-linecap="round" stroke-linejoin="round"/>
<path d="M89.9062 126.166H114.559" stroke="white" stroke-width="7" stroke-linecap="round" stroke-linejoin="round"/>
<path d="M102.231 113.842V126.168" stroke="white" stroke-width="7" stroke-linecap="round" stroke-linejoin="round"/>
<defs>
<linearGradient id="paint0_linear" x1="96.3074" y1="210.281" x2="60.9271" y2="-2.70769" gradientUnits="userSpaceOnUse">
<stop stop-color="#D93FDC"/>
<stop offset="1" stop-color="#DC3F5E"/>
</linearGradient>
</defs>
</svg>
