<svg xmlns="http://www.w3.org/2000/svg" width="192.272" height="66.321" viewBox="0 0 192.272 66.321">
  <g id="Group_9" data-name="Group 9" transform="translate(-862.777 -1691.257)">
    <path id="Fill-281" d="M126.844,88.02l-1.96-4.537-1.946,4.537Zm-2.852-6.92h1.847l4.992,11.424h-2.106l-1.152-2.739h-5.365l-1.165,2.739H119Z" transform="translate(743.777 1610.27)" fill="#798588" fill-rule="evenodd"/>
    <g id="Group-316" transform="translate(863.08 1691.257)">
      <path id="Fill-282" d="M19.354,15.881l1.2-1.425a5.226,5.226,0,0,0,3.581,1.474c1.232,0,2.01-.566,2.01-1.427v-.031c0-.812-.453-1.25-2.56-1.735-2.414-.583-3.775-1.3-3.775-3.387V9.318c0-1.945,1.62-3.289,3.873-3.289A6.289,6.289,0,0,1,27.8,7.454L26.729,8.962A5.144,5.144,0,0,0,23.65,7.8c-1.168,0-1.847.6-1.847,1.344v.033c0,.875.518,1.264,2.689,1.783,2.4.582,3.647,1.442,3.647,3.322v.032c0,2.124-1.67,3.388-4.051,3.388a6.987,6.987,0,0,1-4.733-1.815" transform="translate(-6.823 -5.996)" fill="#798588" fill-rule="evenodd"/>
      <path id="Fill-284" d="M28.386,15.881l1.2-1.425a5.228,5.228,0,0,0,3.581,1.474c1.232,0,2.01-.566,2.01-1.427v-.031c0-.812-.453-1.25-2.56-1.735-2.416-.583-3.777-1.3-3.777-3.387V9.318c0-1.945,1.621-3.289,3.874-3.289A6.291,6.291,0,0,1,36.83,7.454l-1.07,1.508A5.142,5.142,0,0,0,32.68,7.8c-1.167,0-1.847.6-1.847,1.344v.033c0,.875.519,1.264,2.69,1.783,2.4.582,3.647,1.442,3.647,3.322v.032c0,2.124-1.67,3.388-4.052,3.388a6.987,6.987,0,0,1-4.732-1.815" transform="translate(-5.646 -5.996)" fill="#798588" fill-rule="evenodd"/>
      <path id="Fill-286" d="M47.563,11.9v-.033a3.887,3.887,0,0,0-3.856-4.035,3.833,3.833,0,0,0-3.826,4v.033A3.887,3.887,0,0,0,43.739,15.9a3.833,3.833,0,0,0,3.824-4m-9.771,0v-.033a5.931,5.931,0,0,1,11.861-.033v.033a5.931,5.931,0,0,1-11.861.033" transform="translate(-4.42 -6)" fill="#798588" fill-rule="evenodd"/>
      <path id="Fill-288" d="M49.977,11.9v-.033A5.741,5.741,0,0,1,55.828,6a5.91,5.91,0,0,1,4.439,1.767l-1.28,1.474a4.513,4.513,0,0,0-3.175-1.41,3.808,3.808,0,0,0-3.745,4v.033A3.837,3.837,0,0,0,55.812,15.9a4.448,4.448,0,0,0,3.255-1.475l1.281,1.3a5.85,5.85,0,0,1-4.6,2.01A5.705,5.705,0,0,1,49.977,11.9" transform="translate(-2.832 -6)" fill="#798588" fill-rule="evenodd"/>
      <path id="Fill-290" d="M61.1,17.515h1.993V6.171H61.1Z" transform="translate(-1.381 -5.978)" fill="#798588" fill-rule="evenodd"/>
      <path id="Fill-292" d="M72.528,13.02l-1.96-4.537L68.624,13.02ZM69.676,6.1h1.848l4.991,11.424H74.408l-1.15-2.739H67.894l-1.167,2.739H64.685Z" transform="translate(-0.914 -5.987)" fill="#798588" fill-rule="evenodd"/>
      <path id="Fill-293" d="M78.46,8.019h-3.6V6.172h9.2V8.019h-3.6v9.5H78.46Z" transform="translate(0.412 -5.978)" fill="#798588" fill-rule="evenodd"/>
      <path id="Fill-294" d="M84.97,17.515h1.993V6.171H84.97Z" transform="translate(1.73 -5.978)" fill="#798588" fill-rule="evenodd"/>
      <path id="Fill-295" d="M98.742,11.9v-.033a3.887,3.887,0,0,0-3.857-4.035,3.833,3.833,0,0,0-3.825,4v.033A3.886,3.886,0,0,0,94.917,15.9a3.834,3.834,0,0,0,3.825-4m-9.772,0v-.033a5.932,5.932,0,0,1,11.863-.033v.033A5.932,5.932,0,0,1,88.97,11.9" transform="translate(2.251 -6)" fill="#798588" fill-rule="evenodd"/>
      <path id="Fill-296" d="M101.6,6.171h1.846l6.077,7.844V6.171h1.962V17.515h-1.67L103.56,9.445v8.071H101.6Z" transform="translate(3.898 -5.978)" fill="#798588" fill-rule="evenodd"/>
      <path id="Fill-297" d="M126.553,11.9v-.033A3.886,3.886,0,0,0,122.7,7.831a3.832,3.832,0,0,0-3.823,4v.033a3.885,3.885,0,0,0,3.854,4.035,3.833,3.833,0,0,0,3.825-4m-9.771,0v-.033a5.932,5.932,0,0,1,11.863-.033v.033a5.932,5.932,0,0,1-11.863.033" transform="translate(5.877 -6)" fill="#798588" fill-rule="evenodd"/>
      <path id="Fill-298" d="M129.411,6.171h8.444V7.985H131.4v3.1h5.722V12.9H131.4v4.619h-1.993Z" transform="translate(7.523 -5.978)" fill="#798588" fill-rule="evenodd"/>
      <path id="Fill-299" d="M8.269,44.405h5.349l5.929,9.538,5.929-9.538h5.348V66.961H25.893V52.236l-6.347,9.633h-.13l-6.281-9.537V66.961H8.269Z" transform="translate(-8.269 -0.994)" fill="#798588" fill-rule="evenodd"/>
      <path id="Fill-300" d="M32.7,57.294V44.405h4.962V57.166c0,3.674,1.837,5.574,4.865,5.574s4.865-1.836,4.865-5.412V44.405h4.963V57.133c0,6.831-3.835,10.182-9.893,10.182S32.7,63.932,32.7,57.294" transform="translate(-5.084 -0.994)" fill="#798588" fill-rule="evenodd"/>
      <path id="Fill-301" d="M53.191,63.711,56.125,60.2a10.344,10.344,0,0,0,6.735,2.739c2.029,0,3.252-.8,3.252-2.126v-.064c0-1.257-.772-1.9-4.542-2.868-4.544-1.16-7.475-2.417-7.475-6.9v-.064c0-4.092,3.286-6.8,7.893-6.8a13.052,13.052,0,0,1,8.377,2.869l-2.576,3.737A10.584,10.584,0,0,0,61.923,48.5c-1.9,0-2.9.868-2.9,1.965v.064c0,1.482.965,1.966,4.865,2.964,4.576,1.193,7.153,2.837,7.153,6.766v.066c0,4.478-3.415,6.991-8.281,6.991a14.351,14.351,0,0,1-9.57-3.608" transform="translate(-2.413 -1.031)" fill="#798588" fill-rule="evenodd"/>
      <path id="Fill-302" d="M72.8,44.405H89.815v4.414H77.732v4.576H88.365V57.81H77.732v4.736H89.976v4.415H72.8Z" transform="translate(0.144 -0.994)" fill="#798588" fill-rule="evenodd"/>
      <path id="Fill-303" d="M91.587,57.294V44.405H96.55V57.166c0,3.674,1.836,5.574,4.864,5.574s4.866-1.836,4.866-5.412V44.405h4.961V57.133c0,6.831-3.833,10.182-9.892,10.182s-9.763-3.383-9.763-10.021" transform="translate(2.592 -0.994)" fill="#798588" fill-rule="evenodd"/>
      <path id="Fill-304" d="M113.45,44.405h5.35l5.929,9.538,5.928-9.538h5.349V66.961h-4.931V52.236l-6.346,9.633h-.13l-6.283-9.537V66.961H113.45Z" transform="translate(5.442 -0.994)" fill="#798588" fill-rule="evenodd"/>
      <path id="Fill-305" d="M136.824,63.711l2.932-3.513a10.348,10.348,0,0,0,6.734,2.739c2.03,0,3.253-.8,3.253-2.126v-.064c0-1.257-.772-1.9-4.541-2.868-4.544-1.16-7.476-2.417-7.476-6.9v-.064c0-4.092,3.287-6.8,7.892-6.8A13.058,13.058,0,0,1,154,46.989l-2.579,3.737a10.568,10.568,0,0,0-5.862-2.222c-1.9,0-2.9.868-2.9,1.965v.064c0,1.482.968,1.966,4.865,2.964,4.576,1.193,7.153,2.837,7.153,6.766v.066c0,4.478-3.416,6.991-8.28,6.991a14.347,14.347,0,0,1-9.57-3.608" transform="translate(8.489 -1.031)" fill="#798588" fill-rule="evenodd"/>
      <path id="Fill-306" d="M8.355,31.76V31.7a11.464,11.464,0,0,1,11.76-11.664,11.636,11.636,0,0,1,8.894,3.48l-3.158,3.641a8.322,8.322,0,0,0-5.767-2.546c-3.8,0-6.54,3.157-6.54,7.024V31.7c0,3.867,2.673,7.088,6.54,7.088,2.577,0,4.156-1.031,5.929-2.642l3.157,3.19a11.525,11.525,0,0,1-9.247,4.027A11.385,11.385,0,0,1,8.355,31.76" transform="translate(-8.257 -4.171)" fill="#798588" fill-rule="evenodd"/>
      <path id="Fill-307" d="M30.275,20.373h4.963V29.3h9.15V20.373H49.35V42.928H44.388V33.874h-9.15v9.054H30.275Z" transform="translate(-5.4 -4.126)" fill="#798588" fill-rule="evenodd"/>
      <path id="Fill-308" d="M52.138,42.928H57.1V20.373H52.138Z" transform="translate(-2.55 -4.126)" fill="#798588" fill-rule="evenodd"/>
      <path id="Fill-309" d="M61.516,20.373h4.962V38.418H77.723v4.51H61.516Z" transform="translate(-1.327 -4.126)" fill="#798588" fill-rule="evenodd"/>
      <path id="Fill-310" d="M87.956,38.45a6.427,6.427,0,0,0,6.8-6.735v-.066a6.476,6.476,0,0,0-6.8-6.8H84.122v13.6Zm-8.8-18.077h8.8c7.09,0,11.987,4.865,11.987,11.213v.063c0,6.348-4.9,11.278-11.987,11.278h-8.8Z" transform="translate(0.972 -4.126)" fill="#798588" fill-rule="evenodd"/>
      <path id="Fill-311" d="M111.438,31.328c2.417,0,3.8-1.289,3.8-3.189v-.066c0-2.126-1.482-3.222-3.9-3.222h-4.929v6.476ZM101.45,20.373h10.312a8.989,8.989,0,0,1,6.572,2.288,7.079,7.079,0,0,1,1.935,5.156v.066a7,7,0,0,1-4.836,6.99l5.509,8.056h-5.8l-4.833-7.217h-3.9v7.217H101.45Z" transform="translate(3.878 -4.126)" fill="#798588" fill-rule="evenodd"/>
      <path id="Fill-312" d="M122.059,20.373h17.014v4.415H126.99v4.576h10.633v4.414H126.99v4.736h12.244v4.414H122.059Z" transform="translate(6.565 -4.126)" fill="#798588" fill-rule="evenodd"/>
      <path id="Fill-313" d="M141.156,20.373h4.576L156.3,34.261V20.373h4.9V42.928h-4.22L146.055,28.591V42.928h-4.9Z" transform="translate(9.054 -4.126)" fill="#798588" fill-rule="evenodd"/>
      <path id="Fill-314" d="M162.309,39.678l2.931-3.512a10.341,10.341,0,0,0,6.735,2.739c2.03,0,3.253-.806,3.253-2.127v-.063c0-1.256-.773-1.9-4.542-2.868-4.544-1.16-7.477-2.417-7.477-6.9v-.064c0-4.091,3.289-6.8,7.894-6.8a13.054,13.054,0,0,1,8.378,2.868L176.9,26.694a10.577,10.577,0,0,0-5.863-2.223c-1.9,0-2.9.87-2.9,1.966V26.5c0,1.482.968,1.965,4.867,2.964,4.576,1.191,7.152,2.836,7.152,6.766V36.3c0,4.477-3.416,6.991-8.28,6.991a14.342,14.342,0,0,1-9.568-3.609" transform="translate(11.811 -4.164)" fill="#798588" fill-rule="evenodd"/>
      <path id="Fill-315" d="M166.028,18.048a2.992,2.992,0,1,1-2.992-2.991,2.992,2.992,0,0,1,2.992,2.991" transform="translate(11.516 -4.819)" fill="#d8232a" fill-rule="evenodd"/>
    </g>
  </g>
</svg>
