<svg xmlns="http://www.w3.org/2000/svg" width="52" height="52" viewBox="0 0 52 52">
  <g id="Group_200" data-name="Group 200" transform="translate(-392 -1720)">
    <rect id="Rectangle_60" data-name="Rectangle 60" width="52" height="52" rx="10" transform="translate(392 1720)" fill="#95a347"/>
    <path id="icons8-conference_call" d="M10.122,4A5.9,5.9,0,0,0,4.58,9.929a9.449,9.449,0,0,0,1.287,4.933l-3.033,1.5A5.053,5.053,0,0,0,0,20.92v3.926a1.424,1.424,0,0,0,1.422,1.422H5.064c0,.03,0,.06,0,.091v4.464a1.52,1.52,0,0,0,1.518,1.518H25.811a1.52,1.52,0,0,0,1.518-1.518V26.359c0-.031,0-.061,0-.091h3.642a1.424,1.424,0,0,0,1.422-1.422V20.92a5.055,5.055,0,0,0-2.834-4.56l-3.04-1.5a9.267,9.267,0,0,0,1.295-4.929A5.9,5.9,0,0,0,22.268,4,5.7,5.7,0,0,0,17.2,7.648a4.782,4.782,0,0,0-2,0A5.712,5.712,0,0,0,10.122,4Zm0,1.012A4.719,4.719,0,0,1,14.213,7.94a6.761,6.761,0,0,0-4.091,6.182,10.546,10.546,0,0,0,1.465,5.534L8.138,21.38a5.529,5.529,0,0,0-2.966,3.876H1.422a.411.411,0,0,1-.41-.41V20.92a4.049,4.049,0,0,1,2.27-3.652L6.461,15.7A6.182,6.182,0,0,0,7.82,16.918a.506.506,0,1,0,.556-.846A7.2,7.2,0,0,1,5.592,9.928,4.922,4.922,0,0,1,10.122,5.012Zm12.146,0A4.923,4.923,0,0,1,26.8,9.929c0,3.372-1.556,5.457-3.012,6.284a.506.506,0,1,0,.5.88,6.053,6.053,0,0,0,1.633-1.4l3.189,1.575a4.048,4.048,0,0,1,2.27,3.652v3.926a.411.411,0,0,1-.41.41H27.218a5.531,5.531,0,0,0-2.966-3.876L20.8,19.656a10.546,10.546,0,0,0,1.465-5.534A6.761,6.761,0,0,0,18.177,7.94,4.719,4.719,0,0,1,22.268,5.012ZM16.2,8.555c2.648,0,5.061,2.653,5.061,5.567,0,4.953-2.939,7.591-5.061,7.591s-5.061-2.638-5.061-7.591C11.134,11.208,13.547,8.555,16.2,8.555ZM12.176,20.494A5.355,5.355,0,0,0,16.2,22.726a5.355,5.355,0,0,0,4.019-2.232L23.8,22.286a4.529,4.529,0,0,1,2.518,4.073v4.464a.507.507,0,0,1-.506.506H6.579a.507.507,0,0,1-.506-.506V26.359a4.53,4.53,0,0,1,2.519-4.073ZM8.6,28.293A.506.506,0,0,0,8.1,28.8v1.012a.506.506,0,0,0,1.012,0V28.8A.506.506,0,0,0,8.6,28.293Zm2.53,0a.506.506,0,0,0-.506.506v1.012a.506.506,0,0,0,1.012,0V28.8A.506.506,0,0,0,11.134,28.293Zm2.53,0a.506.506,0,0,0-.506.506v1.012a.506.506,0,0,0,1.012,0V28.8A.506.506,0,0,0,13.665,28.293Zm2.53,0a.506.506,0,0,0-.506.506v1.012a.506.506,0,0,0,1.012,0V28.8A.506.506,0,0,0,16.2,28.293Zm2.53,0a.506.506,0,0,0-.506.506v1.012a.506.506,0,0,0,1.012,0V28.8A.506.506,0,0,0,18.726,28.293Zm2.53,0a.506.506,0,0,0-.506.506v1.012a.506.506,0,0,0,1.012,0V28.8A.506.506,0,0,0,21.256,28.293Zm2.53,0a.506.506,0,0,0-.506.506v1.012a.506.506,0,0,0,1.012,0V28.8A.506.506,0,0,0,23.786,28.293Z" transform="translate(402 1728)" fill="#fff"/>
  </g>
</svg>
