<svg xmlns="http://www.w3.org/2000/svg" width="52" height="52" viewBox="0 0 52 52">
  <g id="Group_201" data-name="Group 201" transform="translate(-817 -1720)">
    <rect id="Rectangle_61" data-name="Rectangle 61" width="52" height="52" rx="10" transform="translate(817 1720)" fill="#1aa2d8"/>
    <g id="surface1" transform="translate(827 1728)">
      <path id="Path_19" data-name="Path 19" d="M15.581,4a9.56,9.56,0,0,0-9.55,9.55c0,2.5,1.4,4.366,2.751,6.173,1.08,1.443,2.1,2.817,2.275,4.382v3.518A3.522,3.522,0,0,0,14.073,31.1v.542a1.007,1.007,0,0,0,1.005,1.005h1.005a1.007,1.007,0,0,0,1.005-1.005V31.1A3.522,3.522,0,0,0,20.1,27.623V24.556c.008-1.757,1.117-3.251,2.293-4.834,1.345-1.806,2.733-3.673,2.733-6.173A9.56,9.56,0,0,0,15.581,4Zm0,1.005a8.553,8.553,0,0,1,8.544,8.544c0,2.167-1.288,3.9-2.533,5.574-1.127,1.516-2.289,3.077-2.47,4.95H16.083V22.6a.5.5,0,0,0-1.005,0v1.478h-3c-.183-1.873-1.355-3.438-2.489-4.955-1.255-1.675-2.55-3.4-2.55-5.57A8.553,8.553,0,0,1,15.581,5.005Zm-.069,1.506a7,7,0,0,0-3.8,1.156.5.5,0,0,0,.554.838,6.009,6.009,0,0,1,4.408-.887.5.5,0,0,0,.183-.988A6.962,6.962,0,0,0,15.512,6.511Zm3.516.944a.508.508,0,0,0-.5.238.5.5,0,0,0,.173.691,6.025,6.025,0,0,1,1.147.9.5.5,0,0,0,.713-.711,7.109,7.109,0,0,0-1.341-1.05A.521.521,0,0,0,19.028,7.455Zm-16.5.32a.5.5,0,0,0-.181.968L4.209,9.5a.479.479,0,0,0,.187.037.5.5,0,0,0,.188-.97L2.721,7.811A.5.5,0,0,0,2.525,7.775Zm26.112,0a.5.5,0,0,0-.2.035l-1.863.754a.5.5,0,0,0,.188.97.479.479,0,0,0,.187-.037l1.865-.754a.5.5,0,0,0-.181-.968ZM.5,13.047a.5.5,0,0,0,0,1.005H3.518a.5.5,0,1,0,0-1.005Zm27.141,0a.5.5,0,0,0,0,1.005h3.016a.5.5,0,0,0,0-1.005ZM13.57,15.057a.5.5,0,0,0-.355.858l1.005,1.005a.5.5,0,0,0,.711-.711L13.926,15.2A.5.5,0,0,0,13.57,15.057Zm4.021,0a.5.5,0,0,0-.355.147l-2.01,2.01a.5.5,0,0,0-.147.355v3.016a.5.5,0,1,0,1.005,0V17.779l1.863-1.863a.5.5,0,0,0-.355-.858ZM4.406,17.565a.521.521,0,0,0-.2.037l-1.865.754a.5.5,0,0,0,.188.968.526.526,0,0,0,.188-.035l1.863-.754a.5.5,0,0,0-.179-.97Zm22.35,0a.5.5,0,0,0-.179.97l1.863.752a.486.486,0,0,0,.188.035.5.5,0,0,0,.188-.968L26.952,17.6A.483.483,0,0,0,26.756,17.567ZM12.063,25.11H19.1v.562l-7.037.88ZM19.1,26.684v.938c0,.02-.006.039-.006.061l-5.1.638a.5.5,0,0,0,.063,1,.338.338,0,0,0,.063,0l4.718-.589a2.507,2.507,0,0,1-2.246,1.408h-2.01a2.515,2.515,0,0,1-2.513-2.513v-.059Zm-4.021,4.457h1.005v.5H15.078Z" fill="#fff"/>
    </g>
  </g>
</svg>
