<svg xmlns="http://www.w3.org/2000/svg" width="52" height="52" viewBox="0 0 52 52">
  <g id="Group_202" data-name="Group 202" transform="translate(-1242 -1720)">
    <rect id="Rectangle_62" data-name="Rectangle 62" width="52" height="52" rx="10" transform="translate(1242 1720)" fill="#849097"/>
    <g id="surface1" transform="translate(1252.727 1729.588)">
      <path id="Path_18" data-name="Path 18" d="M21.114,2.723a2.4,2.4,0,0,0-1.038.179l-2.056.855-3.177.351a10.383,10.383,0,0,0-1.277.228.024.024,0,0,1-.011-.007L10.5,2.958a2.4,2.4,0,0,0-2.667.489L.645,10.632a2.407,2.407,0,0,0-.411,2.833l3.255,5.984-.98,1.027a2.173,2.173,0,0,0,1.574,3.67c.058,0,.114-.013.172-.017l-.077.082a1.958,1.958,0,0,0,2.77,2.766L7.03,26.9c-.006.058-.019.114-.019.174a2.173,2.173,0,0,0,3.67,1.582l.041-.039a2.189,2.189,0,0,0,3.623,1.419l.538.474a2.2,2.2,0,0,0,3.647-1.9,2.255,2.255,0,0,0,3.033-2.192,2.254,2.254,0,0,0,3.324-2.46,2.263,2.263,0,0,0,2.1-.6,2.383,2.383,0,0,0,.1-3.251l-.611-.672a10.029,10.029,0,0,0,1.993-2.57l1.838-3.4a2.4,2.4,0,0,0-.413-2.827L22.685,3.421A2.379,2.379,0,0,0,21.114,2.723Zm-.047.954a1.429,1.429,0,0,1,.941.42l7.216,7.212a1.447,1.447,0,0,1,.247,1.7l-1.838,3.4a9.059,9.059,0,0,1-1.795,2.316L18.7,10.867a5.238,5.238,0,0,0-5.763-1.128L9.708,11.1a3.723,3.723,0,0,1-3.276-.177.479.479,0,0,1-.067-.792L10.26,7a9.065,9.065,0,0,1,4.687-1.944L18.192,4.7a.38.38,0,0,0,.065-.021.427.427,0,0,0,.067-.013l2.12-.881A1.422,1.422,0,0,1,21.068,3.677ZM9.474,3.705a1.438,1.438,0,0,1,.633.125l2.1.943A10.046,10.046,0,0,0,9.663,6.258l-3.9,3.126a1.437,1.437,0,0,0,.2,2.374,4.683,4.683,0,0,0,4.112.222l3.225-1.361a4.279,4.279,0,0,1,4.7.908l8.376,9.211a1.425,1.425,0,0,1-.067,1.94,1.3,1.3,0,0,1-1.716.106l-1.8-1.4a.479.479,0,0,0-.633.717l1.449,1.447a1.3,1.3,0,0,1-1.718,1.944l-1.8-1.4a.479.479,0,0,0-.633.717l.773.769a1.3,1.3,0,0,1-1.716,1.946l-1.806-1.4a.476.476,0,0,0-.629.713l1.145,1.147a1.247,1.247,0,0,1-1.707,1.817l-6.1-5.384L6.5,21.843a9.121,9.121,0,0,1-1.97-2.473L1.074,13.007a1.441,1.441,0,0,1,.247-1.7L8.5,4.124A1.447,1.447,0,0,1,9.474,3.705Zm11.8,1.132a.468.468,0,0,0-.336.142l-.678.676a.478.478,0,0,0,.678.674l.674-.674a.475.475,0,0,0,0-.676A.469.469,0,0,0,21.277,4.837Zm1.692,1.692a.475.475,0,0,0-.338.14l-.676.674a.479.479,0,0,0,.676.678l.676-.678a.476.476,0,0,0,0-.674A.46.46,0,0,0,22.969,6.529Zm1.69,1.69a.478.478,0,0,0-.338.14l-.676.676a.477.477,0,1,0,.674.676L25,9.035a.478.478,0,0,0-.338-.816Zm1.69,1.69a.478.478,0,0,0-.338.14l-.676.676a.478.478,0,1,0,.676.676l.676-.676a.478.478,0,0,0-.338-.816Zm1.69,1.69a.478.478,0,0,0-.338.14l-.676.676a.478.478,0,1,0,.676.676l.676-.676a.478.478,0,0,0-.338-.816Zm-8.1,5.337a.478.478,0,0,0-.338.816l.676.676a.479.479,0,0,0,.678-.676l-.678-.676A.475.475,0,0,0,19.938,16.937Zm-1.69,1.692a.473.473,0,0,0-.338.138.48.48,0,0,0,0,.678l.678.674a.477.477,0,0,0,.674-.674l-.676-.678A.473.473,0,0,0,18.248,18.629ZM3.987,20.313a10.057,10.057,0,0,0,1.55,1.925l-.6.6a1.246,1.246,0,0,1-1.72,0,1.209,1.209,0,0,1-.019-1.7Zm12.57.006a.47.47,0,0,0-.338.14.476.476,0,0,0,0,.674l.676.678a.479.479,0,0,0,.676-.678l-.676-.674A.47.47,0,0,0,16.558,20.319Zm-1.69,1.688a.479.479,0,0,0-.338.816l.676.678a.479.479,0,1,0,.676-.678l-.676-.674A.472.472,0,0,0,14.868,22.007ZM6.512,23.124,8.13,24.552,6.292,26.28a1,1,0,0,1-1.417-1.416Zm6.665.573a.479.479,0,0,0-.34.818l.678.674a.477.477,0,1,0,.674-.674l-.674-.678A.481.481,0,0,0,13.177,23.7ZM9.116,25.421l1.858,1.64-.951.9a1.218,1.218,0,0,1-1.7-1.746Zm2.631,2.323,1.866,1.645a1.232,1.232,0,0,1-1.589-.131,1.249,1.249,0,0,1-.293-1.289A.448.448,0,0,0,11.747,27.744Z" fill="#fff"/>
    </g>
  </g>
</svg>
