<svg xmlns="http://www.w3.org/2000/svg" width="169.831" height="58.673" viewBox="0 0 169.831 58.673">
  <g id="Group-316" transform="translate(-8.268 -6)">
    <path id="Fill-282" d="M19.354,14.745l1.061-1.261a4.623,4.623,0,0,0,3.168,1.3c1.09,0,1.778-.5,1.778-1.262V13.5c0-.718-.4-1.106-2.265-1.535-2.136-.516-3.34-1.147-3.34-3V8.939c0-1.721,1.433-2.91,3.426-2.91A5.563,5.563,0,0,1,26.824,7.29l-.946,1.334a4.551,4.551,0,0,0-2.724-1.032c-1.033,0-1.634.529-1.634,1.189V8.81c0,.774.458,1.118,2.379,1.577,2.122.515,3.226,1.276,3.226,2.939v.028c0,1.879-1.477,3-3.584,3a6.182,6.182,0,0,1-4.187-1.606" fill="#fff" fill-rule="evenodd"/>
    <path id="Fill-284" d="M28.386,14.745l1.061-1.261a4.625,4.625,0,0,0,3.168,1.3c1.09,0,1.778-.5,1.778-1.262V13.5c0-.718-.4-1.106-2.265-1.535-2.137-.516-3.341-1.147-3.341-3V8.939c0-1.721,1.434-2.91,3.427-2.91A5.565,5.565,0,0,1,35.856,7.29l-.947,1.334a4.549,4.549,0,0,0-2.724-1.032c-1.032,0-1.634.529-1.634,1.189V8.81c0,.774.459,1.118,2.38,1.577,2.123.515,3.226,1.276,3.226,2.939v.028c0,1.879-1.477,3-3.585,3a6.181,6.181,0,0,1-4.186-1.606" fill="#fff" fill-rule="evenodd"/>
    <path id="Fill-286" d="M46.436,11.219V11.19a3.439,3.439,0,0,0-3.411-3.57,3.391,3.391,0,0,0-3.385,3.541v.029a3.439,3.439,0,0,0,3.413,3.57,3.391,3.391,0,0,0,3.383-3.541m-8.644,0V11.19a5.247,5.247,0,0,1,10.493-.029v.029a5.247,5.247,0,0,1-10.493.029" fill="#fff" fill-rule="evenodd"/>
    <path id="Fill-288" d="M49.977,11.219V11.19A5.079,5.079,0,0,1,55.153,6,5.228,5.228,0,0,1,59.08,7.563l-1.132,1.3A3.993,3.993,0,0,0,55.139,7.62a3.369,3.369,0,0,0-3.313,3.541v.029a3.4,3.4,0,0,0,3.313,3.57,3.935,3.935,0,0,0,2.88-1.305L59.152,14.6a5.175,5.175,0,0,1-4.071,1.778,5.047,5.047,0,0,1-5.1-5.161" fill="#fff" fill-rule="evenodd"/>
    <path id="Fill-290" d="M61.1,16.207h1.763V6.171H61.1Z" fill="#fff" fill-rule="evenodd"/>
    <path id="Fill-292" d="M71.624,12.222,69.89,8.208l-1.72,4.014ZM69.1,6.1h1.635l4.415,10.107H73.287L72.27,13.784H67.524l-1.032,2.423H64.685Z" fill="#fff" fill-rule="evenodd"/>
    <path id="Fill-293" d="M78.045,7.806H74.863V6.172h8.143V7.806H79.823v8.4H78.045Z" fill="#fff" fill-rule="evenodd"/>
    <path id="Fill-294" d="M84.97,16.207h1.763V6.171H84.97Z" fill="#fff" fill-rule="evenodd"/>
    <path id="Fill-295" d="M97.615,11.219V11.19A3.439,3.439,0,0,0,94.2,7.62a3.391,3.391,0,0,0-3.384,3.541v.029a3.438,3.438,0,0,0,3.412,3.57,3.391,3.391,0,0,0,3.384-3.541m-8.645,0V11.19a5.248,5.248,0,0,1,10.495-.029v.029a5.248,5.248,0,0,1-10.495.029" fill="#fff" fill-rule="evenodd"/>
    <path id="Fill-296" d="M101.6,6.171h1.633l5.376,6.939V6.171h1.736V16.207h-1.477l-5.534-7.14v7.14H101.6Z" fill="#fff" fill-rule="evenodd"/>
    <path id="Fill-297" d="M125.426,11.219V11.19a3.438,3.438,0,0,0-3.412-3.57,3.39,3.39,0,0,0-3.382,3.541v.029a3.437,3.437,0,0,0,3.41,3.57,3.391,3.391,0,0,0,3.384-3.541m-8.644,0V11.19a5.248,5.248,0,0,1,10.5-.029v.029a5.248,5.248,0,0,1-10.5.029" fill="#fff" fill-rule="evenodd"/>
    <path id="Fill-298" d="M129.411,6.171h7.47V7.776h-5.707v2.74h5.062v1.605h-5.062v4.086h-1.763Z" fill="#fff" fill-rule="evenodd"/>
    <path id="Fill-299" d="M8.269,44.4H13l5.245,8.438L23.49,44.4h4.731V64.36H23.861V51.333l-5.615,8.522h-.115l-5.557-8.437V64.36h-4.3Z" fill="#fff" fill-rule="evenodd"/>
    <path id="Fill-300" d="M32.7,55.808V44.4h4.39V55.694c0,3.25,1.625,4.931,4.3,4.931s4.3-1.624,4.3-4.788V44.4h4.391v11.26c0,6.043-3.393,9.008-8.752,9.008S32.7,61.68,32.7,55.808" fill="#fff" fill-rule="evenodd"/>
    <path id="Fill-301" d="M53.191,61.452l2.6-3.108a9.151,9.151,0,0,0,5.958,2.423c1.795,0,2.877-.712,2.877-1.881v-.057c0-1.112-.683-1.681-4.018-2.537-4.02-1.026-6.613-2.138-6.613-6.1v-.057c0-3.62,2.907-6.015,6.983-6.015a11.546,11.546,0,0,1,7.411,2.538l-2.279,3.306A9.363,9.363,0,0,0,60.916,48c-1.682,0-2.565.768-2.565,1.738v.057c0,1.311.854,1.739,4.3,2.622,4.048,1.055,6.328,2.51,6.328,5.986v.058c0,3.962-3.021,6.185-7.326,6.185a12.7,12.7,0,0,1-8.466-3.192" fill="#fff" fill-rule="evenodd"/>
    <path id="Fill-302" d="M72.8,44.4h15.05V48.31H77.164v4.048H86.57v3.906H77.164v4.19H88V64.36H72.8Z" fill="#fff" fill-rule="evenodd"/>
    <path id="Fill-303" d="M91.587,55.808V44.4h4.391V55.694c0,3.25,1.624,4.931,4.3,4.931s4.305-1.624,4.305-4.788V44.4h4.389v11.26c0,6.043-3.391,9.008-8.751,9.008s-8.637-2.993-8.637-8.865" fill="#fff" fill-rule="evenodd"/>
    <path id="Fill-304" d="M113.45,44.4h4.733l5.245,8.438,5.244-8.438H133.4V64.36h-4.362V51.333l-5.614,8.522h-.115l-5.558-8.437V64.36H113.45Z" fill="#fff" fill-rule="evenodd"/>
    <path id="Fill-305" d="M136.824,61.452l2.594-3.108a9.155,9.155,0,0,0,5.957,2.423c1.8,0,2.878-.712,2.878-1.881v-.057c0-1.112-.683-1.681-4.017-2.537-4.02-1.026-6.614-2.138-6.614-6.1v-.057c0-3.62,2.908-6.015,6.982-6.015a11.552,11.552,0,0,1,7.413,2.538l-2.282,3.306A9.35,9.35,0,0,0,144.549,48c-1.682,0-2.566.768-2.566,1.738v.057c0,1.311.856,1.739,4.3,2.622,4.048,1.055,6.328,2.51,6.328,5.986v.058c0,3.962-3.022,6.185-7.325,6.185a12.693,12.693,0,0,1-8.466-3.192" fill="#fff" fill-rule="evenodd"/>
    <path id="Fill-306" d="M8.355,30.407V30.35a10.142,10.142,0,0,1,10.4-10.319,10.294,10.294,0,0,1,7.868,3.079l-2.794,3.221a7.362,7.362,0,0,0-5.1-2.252,5.911,5.911,0,0,0-5.786,6.214v.057c0,3.421,2.365,6.271,5.786,6.271a7.2,7.2,0,0,0,5.245-2.337l2.793,2.822a10.2,10.2,0,0,1-8.181,3.563A10.072,10.072,0,0,1,8.355,30.407" fill="#fff" fill-rule="evenodd"/>
    <path id="Fill-307" d="M30.274,20.373h4.391v7.9h8.1v-7.9h4.39V40.327h-4.39v-8.01h-8.1v8.01H30.274Z" fill="#fff" fill-rule="evenodd"/>
    <path id="Fill-308" d="M52.138,40.327h4.389V20.373H52.138Z" fill="#fff" fill-rule="evenodd"/>
    <path id="Fill-309" d="M61.516,20.373h4.39V36.337h9.948v3.99H61.516Z" fill="#fff" fill-rule="evenodd"/>
    <path id="Fill-310" d="M86.942,36.365a5.685,5.685,0,0,0,6.015-5.958v-.058a5.729,5.729,0,0,0-6.015-6.013H83.55V36.365ZM79.16,20.373h7.782c6.272,0,10.6,4.3,10.6,9.92v.056c0,5.616-4.333,9.977-10.6,9.977H79.16Z" fill="#fff" fill-rule="evenodd"/>
    <path id="Fill-311" d="M110.286,30.065c2.138,0,3.364-1.14,3.364-2.821v-.058c0-1.881-1.311-2.85-3.449-2.85H105.84v5.729Zm-8.836-9.692h9.123a7.953,7.953,0,0,1,5.814,2.024,6.263,6.263,0,0,1,1.712,4.561v.058a6.194,6.194,0,0,1-4.278,6.184l4.874,7.127h-5.13l-4.276-6.385H105.84v6.385h-4.39Z" fill="#fff" fill-rule="evenodd"/>
    <path id="Fill-312" d="M122.059,20.373h15.052v3.906h-10.69v4.048h9.407v3.9h-9.407v4.19h10.832v3.9H122.059Z" fill="#fff" fill-rule="evenodd"/>
    <path id="Fill-313" d="M141.156,20.373H145.2l9.351,12.286V20.373h4.331V40.327h-3.733L145.49,27.643V40.327h-4.334Z" fill="#fff" fill-rule="evenodd"/>
    <path id="Fill-314" d="M162.309,37.419l2.593-3.107a9.148,9.148,0,0,0,5.958,2.423c1.8,0,2.878-.713,2.878-1.882V34.8c0-1.111-.684-1.682-4.018-2.537-4.02-1.026-6.615-2.138-6.615-6.1V26.1c0-3.619,2.91-6.014,6.984-6.014a11.549,11.549,0,0,1,7.412,2.537l-2.281,3.307a9.357,9.357,0,0,0-5.187-1.967c-1.681,0-2.567.77-2.567,1.739v.057c0,1.311.856,1.738,4.306,2.622,4.048,1.054,6.327,2.509,6.327,5.986v.058c0,3.961-3.022,6.185-7.325,6.185a12.688,12.688,0,0,1-8.465-3.193" fill="#fff" fill-rule="evenodd"/>
    <path id="Fill-315" d="M165.338,17.7a2.647,2.647,0,1,1-2.647-2.646,2.647,2.647,0,0,1,2.647,2.646" fill="#fff" fill-rule="evenodd"/>
  </g>
</svg>
