<svg xmlns="http://www.w3.org/2000/svg" width="18" height="16.68" viewBox="0 0 18 16.68">
  <path id="icons8-open_envelope" d="M11,1.467a2.7,2.7,0,0,0-1.361.366v0L2.893,5.77A1.8,1.8,0,0,0,2,7.324v9.023a1.813,1.813,0,0,0,1.8,1.8H18.2a1.813,1.813,0,0,0,1.8-1.8V7.324a1.8,1.8,0,0,0-.893-1.554L12.361,1.834A2.7,2.7,0,0,0,11,1.467Zm0,1.8a.9.9,0,0,1,.454.123L18.2,7.324v.044l-6.249,3.888a1.8,1.8,0,0,1-1.9,0L3.8,7.368V7.324l6.746-3.936A.9.9,0,0,1,11,3.265Z" transform="translate(-2 -1.467)" fill="#95a347"/>
</svg>
