<svg xmlns="http://www.w3.org/2000/svg" width="15.381" height="15.381" viewBox="0 0 15.381 15.381">
  <g id="surface1" transform="translate(-3 -3)">
    <path id="Path_16" data-name="Path 16" d="M10.691,3a7.691,7.691,0,1,0,7.691,7.691,6.729,6.729,0,0,0-.407-2.422l-.961.943a5.987,5.987,0,0,1,.185,1.479,6.507,6.507,0,1,1-6.507-6.507,6.336,6.336,0,0,1,4.492,1.83l.832-.832A7.5,7.5,0,0,0,10.691,3Zm6.674,2.533-6.674,6.674L8.158,9.674l-.85.85,2.958,2.958.425.407.425-.407,7.1-7.1Z" fill="#95a347"/>
  </g>
</svg>
